<svg width="175" height="55" viewBox="0 0 175 55" fill="none" xmlns="http://www.w3.org/2000/svg">
<path fill-rule="evenodd" clip-rule="evenodd" d="M173.504 52.9815V1.05847H119.833V52.9815H173.504ZM161.273 15.9701C157.139 13.5733 153.003 12.3306 149.131 12.3306C144.997 12.3306 141.564 13.662 138.926 16.3249C136.198 18.899 134.791 22.094 134.791 26.0883C134.791 29.904 136.198 33.1879 138.839 35.8525C141.653 38.3361 144.997 39.5798 149.044 39.5798C153.356 39.5798 157.579 38.2483 161.714 35.5846V41.1772C157.842 43.3068 153.53 44.3723 148.78 44.3723C144.732 44.3723 141.389 43.5739 138.572 41.9763C135.877 40.3206 133.615 38.0375 131.974 35.3184C130.39 32.3027 129.51 29.2841 129.51 26.0883C129.51 20.7626 131.358 16.4136 135.141 12.8628C138.838 9.31208 143.414 7.44848 148.78 7.44848C152.65 7.44848 156.786 8.42511 161.272 10.4661L161.273 15.9701ZM113.851 1.05847H60.1797V52.9815H113.851V1.05847ZM76.6328 8.77989H85.9594C88.9507 8.77989 91.2395 9.13469 92.9092 9.93391C94.5816 10.8218 95.8126 11.8862 96.6058 13.2185C97.4841 14.6387 97.9255 16.2362 97.9255 18.0998C97.9255 21.6495 96.1652 24.135 92.4695 25.6447C95.1091 26.0883 97.2204 27.1536 98.717 28.9285C100.212 30.5259 100.917 32.5679 101.004 34.8749C100.917 36.6507 100.476 38.3361 99.5971 39.7572C98.628 41.1772 97.3083 42.3321 95.4609 43.3079C93.6135 44.1958 91.4135 44.6392 88.686 44.6392H76.6328V8.77989Z" fill="#9CA3AF"/>
<path fill-rule="evenodd" clip-rule="evenodd" d="M85.078 24.136C87.8047 24.136 89.7409 23.6037 90.8849 22.6271C92.0288 21.4732 92.6434 20.1417 92.6434 18.4555C92.6434 15.0831 90.4452 13.3073 86.1332 13.3073H81.7351V24.136H85.078ZM86.4859 28.7511H81.7351V40.0222H86.8385C89.2134 40.0222 91.1495 39.8458 92.3805 39.4901C93.5246 38.8682 94.3168 38.1588 94.8443 37.3604C95.3719 36.4725 95.7244 35.4968 95.7244 34.4315C95.6357 33.3661 95.3719 32.3887 94.7555 31.5026C94.2279 30.525 93.3487 29.8153 92.1159 29.3711C90.9737 28.9285 89.0376 28.6622 86.4859 28.7511ZM54.0192 1.05847H0.347656V52.9815H54.0192V1.05847ZM16.7138 44.6383V8.77989H26.0404C29.0317 8.77989 31.2318 9.13469 32.9031 9.93391C34.5747 10.7322 35.8946 11.8862 36.6868 13.3063C37.5659 14.6377 38.0065 16.2352 38.0944 18.0988C38.0065 21.6487 36.2471 24.1341 32.5515 25.7315C35.279 26.1759 37.3022 27.2404 38.7988 28.9266C40.2945 30.524 41.0867 32.566 41.0867 34.8731C41.0867 36.7367 40.6472 38.4238 39.6789 39.7553C38.7109 41.2631 37.3912 42.4181 35.6317 43.306C33.7843 44.1939 31.4963 44.6373 28.7688 44.6373L16.7138 44.6383Z" fill="#9CA3AF"/>
<path fill-rule="evenodd" clip-rule="evenodd" d="M26.2155 13.3073H21.8164V24.136H25.2472C27.8868 24.136 29.8221 23.6036 30.9671 22.6271C32.1101 21.5618 32.7265 20.1417 32.7265 18.5442C32.7255 15.0822 30.5265 13.3073 26.2155 13.3073ZM26.5671 28.7511H21.8164V40.0223H26.8309C29.4705 40.0223 31.4058 39.8458 32.5497 39.49C33.5179 39.0466 34.3091 38.4248 34.9247 37.5369C35.4532 36.5611 35.717 35.5835 35.8049 34.4315C35.717 33.1878 35.3643 32.2121 34.8368 31.5026C34.233 30.5198 33.2943 29.7933 32.1972 29.4597C30.9662 28.9285 29.0309 28.7511 26.5671 28.7511Z" fill="#9CA3AF"/>
</svg>
