<svg width="174" height="71" viewBox="0 0 174 71" fill="none" xmlns="http://www.w3.org/2000/svg">
<g clip-path="url(#clip0_628_35)">
<path fill-rule="evenodd" clip-rule="evenodd" d="M8.71306 44.1655C9.433 43.8029 9.61222 43.0808 9.61222 42.3568V26.2654C9.61222 25.7226 9.43197 24.8183 8.71306 24.4568H16.2647C19.6801 24.4568 23.0954 25.9039 23.0954 29.8806C23.0954 31.8694 21.2981 33.497 19.3206 33.8585C22.1974 33.8585 24.7136 35.4858 24.7136 38.5592C24.7136 43.0798 20.2188 44.1644 16.9826 44.1644L8.71306 44.1655ZM14.8259 26.2654H13.5683V33.1354H14.4664C16.8034 33.1354 18.9611 32.4123 18.9611 29.6993C18.9611 26.9885 17.1629 26.2654 14.8259 26.2654ZM15.3656 34.944H13.5683V42.1766C14.4664 42.3568 15.3656 42.3568 16.2647 42.3568C18.2422 42.3568 20.2199 41.6348 20.2199 38.5602C20.2199 35.6671 17.8829 34.944 15.3656 34.944ZM32.2652 26.2654H31.3659V33.1354H32.2652C34.423 33.1354 36.041 31.8694 36.041 29.519C36.041 27.1688 34.4219 26.2654 32.2652 26.2654ZM42.1527 44.3468C41.4329 44.3468 40.5347 44.3468 39.8168 43.9842C38.5582 43.6216 36.7599 40.7293 36.041 39.4636C34.7824 37.6549 33.8842 34.943 31.367 34.943V42.3558C31.367 43.0798 31.5462 43.8018 32.2662 44.1644H26.3337C27.0525 43.8018 27.2327 43.0798 27.2327 42.3558V26.2654C27.2327 25.7226 27.0525 24.8183 26.3337 24.4568H33.5248C36.5797 24.4568 40.3555 25.7226 40.3555 29.519C40.3555 32.5936 37.8382 34.2199 34.9617 34.2199C38.9177 34.2199 41.4329 43.8018 45.9287 43.8018C44.7017 44.1606 43.4306 44.344 42.1527 44.3468ZM46.1079 44.1655C46.6465 43.9852 47.1862 43.2611 47.1862 42.3568V26.2654C47.1862 25.361 46.6465 24.8183 46.1079 24.4568H52.2197C51.681 24.8192 51.1412 25.361 51.1412 26.2654V42.3568C51.1412 43.2611 51.681 43.9852 52.2197 44.1655H46.1079ZM59.2317 44.1655C59.7713 43.8029 60.1308 43.0808 60.1308 42.3568V26.8072H55.8162C54.7378 26.8072 53.6585 26.9875 52.7603 27.3499L54.1982 24.4568H68.4013C69.4798 24.4568 70.7383 24.4568 71.8168 24.2755C71.277 25.7226 69.66 26.8072 68.7608 26.8072H64.0868V42.3568C64.0868 43.0808 64.4463 43.8029 65.1661 44.1655H59.2317ZM72.5345 44.1655C73.0743 43.9852 73.614 43.2611 73.614 42.3568V26.2654C73.614 25.361 73.0743 24.8183 72.5345 24.4568H78.6475C78.1077 24.8192 77.568 25.361 77.568 26.2654V42.3568C77.568 43.2611 78.1077 43.9852 78.6475 44.1655H72.5345ZM90.3344 39.6449C90.3344 36.0295 81.5241 35.1253 81.5241 29.1585C81.5241 25.5423 84.9405 24.2766 87.9974 24.2766C89.4351 24.2766 91.4128 24.4579 92.6714 25.0005L92.8506 28.798C92.1327 27.1707 90.1541 25.9049 88.3558 25.9049C86.9181 25.9049 85.4801 26.628 85.4801 28.2554C85.4801 32.0518 94.4697 33.1375 94.4697 38.7415C94.4697 42.7203 90.8741 44.5279 87.2784 44.5279C85.3019 44.5279 82.7836 44.1655 81.1656 43.0819C81.1656 42.3577 80.9854 41.6358 80.9854 41.0919C80.9854 40.1896 81.1656 39.4657 81.3448 38.5613C82.2441 40.9117 84.2216 42.7203 86.9181 42.7203C88.7153 42.7182 90.3344 41.815 90.3344 39.6449ZM109.029 44.1655C109.39 43.9852 109.928 43.2611 109.928 42.3568V35.1243C108.85 34.944 107.412 34.944 105.793 34.944C103.997 34.944 102.557 34.944 101.48 35.1243V42.3568C101.48 43.2611 102.018 43.9852 102.379 44.1655H96.6254C96.9859 43.9852 97.5246 43.2611 97.5246 42.3568V26.2654C97.5246 25.361 96.9859 24.8183 96.6254 24.4568H102.379C102.018 24.8192 101.48 25.361 101.48 26.2654V32.9552C102.558 32.9552 103.998 33.1365 105.793 33.1365C107.412 33.1365 108.85 32.9552 109.928 32.9552V26.2654C109.928 25.361 109.39 24.8183 109.029 24.4568H114.783C114.244 24.8192 113.883 25.361 113.883 26.2654V42.3568C113.883 43.2611 114.244 43.9852 114.783 44.1655H109.029ZM16.2647 69.6605C16.4439 69.4782 16.6242 69.2979 16.6242 68.9364C16.6242 68.9364 16.4439 68.5739 16.4439 68.2124C16.4439 68.2124 14.8259 63.8741 14.6466 63.3313H7.45547C7.27522 63.8731 5.47794 68.2124 5.47794 68.2124C5.2977 68.7561 5.11848 68.9364 5.11848 69.1187C5.11848 69.4792 5.47794 69.4792 5.65817 69.6605H1.70312C2.26811 69.2724 2.7558 68.7811 3.14095 68.2124L9.43298 51.3979C9.61323 51.3979 9.61323 51.2176 9.61323 51.2176C9.61323 50.6739 9.25378 50.3134 8.8933 50.131H13.9277L20.3991 68.2113C20.7594 68.9353 21.2981 69.2979 21.8379 69.6595L16.2647 69.6605ZM11.0511 53.7483L8.17439 61.3435C9.07353 61.5237 9.97269 61.5237 10.8708 61.5237C11.7689 61.5237 12.8483 61.5237 13.9267 61.3435L11.0511 53.7483ZM22.7359 69.6605C23.2756 69.4782 23.8154 68.7561 23.8154 67.8519V51.7605C23.8154 50.8561 23.2756 50.3145 22.7359 50.1321H28.8489C28.3091 50.3145 27.7694 50.8561 27.7694 51.7605V67.8529C27.7694 68.7572 28.3091 69.4792 28.8489 69.6616L22.7359 69.6605ZM37.8382 51.7605H36.9392V58.6315H37.8382C39.996 58.6315 41.6132 57.5449 41.6132 55.0153C41.6132 52.6638 39.995 51.7605 37.8382 51.7605ZM48.2647 69.8408C47.3665 69.8408 46.6465 69.8408 45.9277 69.6605C44.67 69.1187 42.6914 66.2246 41.9726 64.9576C40.8931 63.1511 39.4554 60.4391 36.9392 60.4391V67.8519C36.9392 68.574 37.1184 69.2979 37.8382 69.6605H31.9057C32.6247 69.2979 32.8049 68.574 32.8049 67.8519V51.7605C32.8049 51.2187 32.6247 50.3145 31.9057 50.1321H39.0969C42.1527 50.1321 45.9287 51.2187 45.9287 55.0153C45.9287 58.0876 43.052 59.716 41.0744 59.716C45.2097 59.8983 47.7259 69.299 51.8612 69.299C50.7819 69.6605 49.5232 69.8408 48.2647 69.8408ZM72.5345 51.9397L66.602 69.6605C66.0624 69.6605 65.5227 69.4782 65.3435 69.2979C64.8047 68.7561 63.9055 66.4057 63.5462 65.5015L60.8487 58.6304L56.8937 69.6605H55.0962L48.4439 51.9397C48.3416 51.5547 48.1609 51.1951 47.9135 50.8837C47.6661 50.5724 47.3571 50.316 47.0059 50.131H52.7584C52.5781 50.3134 52.3989 50.4937 52.3989 50.8552C52.3989 51.0355 52.3989 51.3968 52.5781 51.5771L56.8926 63.3313L61.3874 50.131L66.4207 62.7884L70.3759 51.2166C70.3759 51.0344 70.5561 50.8541 70.5561 50.6728C70.5561 50.3123 70.3759 50.3123 70.1956 50.131H73.9714C73.6208 50.3164 73.312 50.5728 73.0647 50.8841C72.8175 51.1954 72.637 51.5548 72.5345 51.9397ZM79.5465 53.7483L76.6709 61.3435C77.569 61.5237 78.4683 61.5237 79.3673 61.5237C80.2666 61.5237 81.3448 61.5237 82.2441 61.3435L79.5465 53.7483ZM84.58 69.6605C84.9406 69.4782 84.9406 69.2979 84.9406 68.9364C84.9406 68.9364 84.9406 68.5739 84.7603 68.2124C84.7603 68.2124 83.3215 63.8741 82.962 63.3313H75.951C75.7718 63.8731 73.9735 68.2124 73.9735 68.2124C73.7932 68.7561 73.614 68.9364 73.614 69.1187C73.614 69.4792 73.9735 69.4792 74.1527 69.6605H70.1977C70.7373 69.2979 71.277 68.7561 71.4562 68.2124L77.9285 51.3979L78.1088 51.2176C78.1088 50.6739 77.7493 50.3134 77.3898 50.131H82.4233L88.8945 68.2113C89.2551 68.9353 89.7936 69.2979 90.3344 69.6595L84.58 69.6605ZM102.2 52.1199L97.7048 60.2567V67.8519C97.7048 68.574 97.8841 69.2979 98.4247 69.6605H92.8495C93.3882 69.2979 93.5696 68.574 93.5696 67.8519V60.2567L89.6135 53.7483C89.253 53.2065 87.6368 50.3134 85.4782 50.3134C86.0167 50.1311 87.8152 49.7695 88.8935 49.7695C90.872 49.7695 91.7713 49.9518 92.8495 51.7594L96.6243 57.726C96.9848 57.1823 99.8605 51.9397 99.8605 51.9397C100.221 51.3979 100.401 50.8552 100.401 50.6739C100.401 50.4937 100.401 50.3134 100.041 50.1321H104.176C103.457 50.4937 102.739 51.3979 102.2 52.1199ZM112.985 65.1399C112.985 61.5237 104.355 60.6193 104.355 54.6527C104.355 51.0365 107.772 49.7695 110.827 49.7695C112.264 49.7695 114.243 49.9519 115.503 50.4937L115.682 54.2901C114.962 52.6638 112.985 51.3979 111.187 51.3979C109.749 51.3979 108.311 52.1199 108.311 53.7483C108.311 57.5449 117.12 58.6315 117.12 64.2355C117.12 68.3946 113.704 70.02 110.109 70.02C108.132 70.02 105.614 69.6595 103.997 68.5739C103.997 67.8519 103.816 67.3101 103.816 66.5859C103.816 65.6817 103.997 64.9576 103.997 64.2355C105.075 66.4057 107.052 68.2124 109.57 68.2124C111.547 68.2124 112.985 67.3101 112.985 65.1399ZM165.661 10.896C162.245 14.1508 155.054 17.044 151.639 18.3097C146.783 20.1185 144.626 20.8415 141.929 21.7448C138.874 22.6492 132.761 24.6381 132.761 24.6381C145.346 28.4346 154.336 29.5201 154.336 29.5201C154.336 29.5201 158.471 28.2554 165.122 24.6381C168.718 22.8293 170.337 21.7448 171.593 20.479C172.132 20.1175 173.392 18.8516 173.572 17.2242C173.572 17.044 173.751 16.8627 173.751 16.5002V16.1386C173.572 15.9584 173.572 15.7771 173.572 15.7771C173.572 15.7771 173.572 15.4156 173.391 15.0541C173.391 14.8728 173.032 13.9695 172.312 13.4267C171.774 13.0642 171.053 12.1609 168.356 11.2566C167.457 10.894 165.84 10.5325 165.84 10.5325L165.661 10.896Z" fill="#9CA3AF"/>
<path fill-rule="evenodd" clip-rule="evenodd" d="M173.751 16.321C173.751 16.321 173.751 15.9595 173.572 15.7782C173.572 15.4167 173.391 15.2354 173.212 14.8739C172.876 14.5439 172.575 14.1805 172.313 13.7893C171.952 13.608 171.593 13.2465 171.234 12.885C169.436 11.7994 167.278 11.2576 165.3 10.8961C162.245 10.5346 158.649 10.5346 158.289 10.5346C157.21 10.5346 149.84 10.5346 148.043 10.7148C139.773 10.8961 129.524 10.8961 126.827 10.8961C99.3214 10.8961 87.2769 10.3533 73.9729 7.64136C62.6465 5.4712 56.3545 3.30204 56.3545 3.30204C66.4223 2.94052 124.85 0.408836 135.456 0.228586C142.47 0.0483373 147.322 -0.132936 151.278 0.228586C153.436 0.228586 155.234 0.409862 157.571 0.952659C159.726 1.31418 161.706 1.85698 162.783 2.21851C165.12 3.12282 167.278 4.38867 168.177 5.83476C168.177 5.83476 168.538 6.01603 168.895 6.55781C169.256 7.28187 169.794 8.00492 169.976 8.18517C171.413 10.5356 172.131 11.8014 172.313 12.3442C172.673 12.887 172.851 13.4298 173.032 13.9716C173.391 14.3331 173.391 14.6946 173.391 14.8749C173.572 15.4177 173.572 15.9605 173.751 16.1407V16.321Z" fill="#9CA3AF"/>
</g>
<defs>
<clipPath id="clip0_628_35">
<rect width="174" height="70" fill="white" transform="translate(0 0.0200195)"/>
</clipPath>
</defs>
</svg>
