<svg width="174" height="26" viewBox="0 0 174 26" fill="none" xmlns="http://www.w3.org/2000/svg">
<g clip-path="url(#clip0_628_27)">
<path d="M172.952 21.5966V24.6691H172.433V22.3014H172.398L171.537 24.6691H171.09L170.235 22.3014V24.6691H169.708V21.5966H170.491L171.353 24.0036L172.169 21.5966H172.952ZM169.372 21.5966V22.0401H168.365V24.6689H167.846V22.0401H166.839V21.5966H169.372ZM156.358 17.0108C157.141 14.4993 157.141 13.0186 156.39 12.0531C155.831 11.3877 155.015 11.0551 153.778 11.0551C151.022 11.0551 149.495 12.6076 148.264 16.4953C147.475 19.0458 147.475 20.5264 148.224 21.4858C148.745 22.1183 149.606 22.4511 150.836 22.4511C153.554 22.4511 155.127 20.9314 156.358 17.0108ZM167.136 11.3877C168.214 12.7251 168.444 14.4213 167.806 16.4955C166.017 22.2294 159.265 25.517 149.264 25.517C143.296 25.517 139.236 24.3691 137.44 22.151C136.36 20.8205 136.176 19.0851 136.808 17.0108C138.598 11.2769 145.349 7.98929 155.35 7.98929C161.279 7.98929 165.384 9.16999 167.136 11.3877ZM129.833 8.54352H140.427C139.789 9.39172 128.267 24.7408 128.076 25.0019H111.817C111.739 24.519 109.798 9.13724 109.725 8.54352H119.687C119.759 9.02631 121.141 20.0833 121.141 20.0833C121.141 20.0833 129.682 8.76541 129.833 8.54352ZM96.9665 17.0108C97.7495 14.4993 97.7892 13.0186 97.0058 12.0531C96.4795 11.3877 95.6244 11.0551 94.4331 11.0551C91.6698 11.0551 90.1037 12.6076 88.9124 16.4953C88.09 19.0458 88.09 20.5264 88.8728 21.4858C89.3927 22.1183 90.2549 22.4511 91.4456 22.4511C94.2095 22.4511 95.7755 20.9314 96.9665 17.0108ZM107.784 11.3877C108.869 12.7251 109.093 14.4213 108.422 16.4955C106.633 22.2294 99.8749 25.517 89.9193 25.517C83.9514 25.517 79.885 24.3691 78.0886 22.151C77.0096 20.8205 76.7859 19.0851 77.4177 17.0108C79.247 11.2769 85.9978 7.98929 95.9598 7.98929C101.928 7.98929 105.994 9.16999 107.784 11.3877ZM76.6014 10.5792C77.0094 11.0946 77.2332 11.6096 77.1213 12.3533L72.9826 25.0346H62.0139L65.8963 13.2016C66.0409 12.6863 65.8568 12.2427 65.5606 11.91C65.0341 11.2773 63.9157 10.8728 60.0731 11.1336C60.0731 11.1336 55.5265 24.852 55.4473 25.0346H44.4849C44.5905 24.741 49.6305 9.47023 49.7029 9.32012C53.513 8.65478 58.5464 8.02847 63.7708 8.02847C70.8571 8.02863 75.1802 8.87667 76.6014 10.5792ZM36.5757 14.0561C36.7995 13.0189 36.464 12.2427 36.0887 11.7991C35.6809 11.2773 34.7793 10.6118 32.9173 10.6118C30.2722 10.6118 28.2916 11.8708 27.6203 13.9778L26.3174 18.8245L36.5757 14.0561ZM45.7877 14.0168C45.7877 14.793 45.6034 15.4585 45.4521 15.752C45.1165 15.8304 25.9822 20.0444 25.9822 20.0444C25.9822 20.0444 25.791 20.9709 26.5019 21.4533C27.4363 22.1188 28.443 22.3015 30.1539 22.3733C34.3716 22.556 40.0826 20.1163 41.682 19.4181C41.4254 20.227 39.7802 23.7823 39.7079 23.9649C38.9971 24.2258 35.0426 25.4783 27.2848 25.5174C24.3367 25.5565 19.0795 25.1848 16.9148 22.484C15.8357 21.1535 15.6451 19.2681 16.3885 16.9003C18.1452 11.2445 24.7122 7.98961 34.332 7.98961C39.7079 7.98961 43.2149 8.98761 44.8204 10.9446C45.4521 11.7599 45.7877 12.7971 45.7877 14.0168ZM8.44642 0.52002H19.3035C19.0799 1.21811 11.7696 24.5909 11.6511 25.0019H0.800781C1.02427 24.2974 8.33451 0.924614 8.44642 0.52002Z" fill="#9CA3AF"/>
</g>
<defs>
<clipPath id="clip0_628_27">
<rect width="174" height="25" fill="white" transform="translate(0 0.52002)"/>
</clipPath>
</defs>
</svg>
