<svg width="175" height="29" viewBox="0 0 175 29" fill="none" xmlns="http://www.w3.org/2000/svg">
<g clip-path="url(#clip0_628_38)">
<path fill-rule="evenodd" clip-rule="evenodd" d="M1.21875 0.0200195V27.3398H19.6758V21.5963H8.08113V0.0200195H1.21875ZM20.7658 7.87597V19.7506C20.7658 20.677 20.8571 21.6062 21.0249 22.4038C21.1927 23.2014 21.4352 23.8673 21.7303 24.4426C22.0245 25.0187 22.3702 25.5024 22.7677 25.9197C23.1651 26.3372 23.6133 26.6865 24.1269 26.9769C24.6405 27.2672 25.2214 27.4987 25.8956 27.6583C27.4484 28.0158 29.2843 28.0067 30.9782 27.4795C31.7804 27.2359 32.5333 26.8566 33.2033 26.3589C33.4181 26.1975 33.5879 26.0469 33.7418 25.8835L34.0968 27.358H40.0122V7.87688H33.1895V19.4032C33.1895 19.7814 33.159 20.1607 33.1037 20.4883C33.0475 20.8149 32.9681 21.0917 32.8722 21.3294C32.7871 21.5454 32.677 21.751 32.544 21.9419C32.4213 22.1143 32.2858 22.2613 32.1374 22.3866C31.9898 22.5127 31.8275 22.6178 31.6495 22.7041C31.2678 22.891 30.8103 22.9736 30.3475 22.9736C30.1012 22.9736 29.8523 22.9499 29.6292 22.9027C29.4199 22.861 29.2166 22.7937 29.0242 22.7023C28.8468 22.6174 28.6808 22.511 28.5299 22.3856C28.3806 22.2594 28.2441 22.1134 28.1215 21.9409C27.9988 21.7686 27.8873 21.569 27.7914 21.3312C27.6838 21.0601 27.606 20.7784 27.559 20.4911C27.5001 20.1313 27.4711 19.7674 27.4723 19.4032V7.87597H20.7658ZM41.1224 7.82061V12.322H43.8833V27.3398H50.5879V12.322H54.4526V7.82061H50.5879V7.12195C50.5879 6.87968 50.6017 6.63741 50.6266 6.44414C50.6507 6.25087 50.6838 6.10751 50.7225 5.98503C50.8202 5.70011 50.9163 5.4896 51.2233 5.25097C51.3017 5.1938 51.3911 5.14027 51.4972 5.09127C51.6032 5.04228 51.7285 4.99691 51.8927 4.95335C52.0578 4.91071 52.2607 4.86987 52.5825 4.83994C53.1256 4.78458 53.9398 4.79275 54.6499 4.79275V0.0581287H52.5594C51.4483 0.0581287 50.3352 0.111667 49.5193 0.202403C48.7022 0.29314 48.1822 0.416537 47.7543 0.549012C47.3264 0.681487 46.9907 0.823041 46.6975 0.980015C46.4043 1.13699 46.1526 1.30757 45.9267 1.49722C45.6999 1.68595 45.4997 1.89372 45.3153 2.12874C45.1309 2.36375 44.963 2.62597 44.8081 2.93084C44.6531 3.23571 44.5121 3.58505 44.3848 4.00425C44.2576 4.42345 44.1451 4.91252 44.0576 5.53406C43.953 6.2921 43.8954 7.05569 43.8851 7.82061H41.1224ZM55.2179 7.85963V12.3611H57.8994V20.7823C57.8994 21.5118 57.9345 22.2422 57.9962 22.8266C58.058 23.41 58.1456 23.8455 58.2424 24.2075C58.3393 24.5696 58.4471 24.8599 58.5661 25.1104C58.6841 25.3609 58.8132 25.5731 58.9543 25.762C59.2303 26.1349 59.5867 26.4432 59.9981 26.6647C60.2185 26.7863 60.4693 26.8953 60.7792 26.9923C61.0899 27.0894 61.4607 27.1774 61.9761 27.2399C62.4916 27.3027 63.1536 27.3389 63.8139 27.3389H68.6651V22.7984H67.719C67.198 22.7984 66.6761 22.7839 66.3275 22.7594C65.9789 22.7349 65.8047 22.7014 65.6664 22.666C65.3686 22.5844 65.1943 22.5299 64.9702 22.2922C64.8356 22.1306 64.7941 22.0191 64.735 21.8358C64.6822 21.6502 64.6504 21.4593 64.6401 21.2668C64.6128 20.8464 64.6004 20.425 64.6031 20.0038V12.3611H68.3497V7.85963H64.6031V1.65056H57.8985V7.85963H55.2179ZM69.8122 0.0200195V27.3398H76.5169V16.2418C76.5169 15.7836 76.5741 15.3245 76.6848 14.9125C76.7964 14.5006 76.9586 14.1358 77.1596 13.8219C77.3606 13.5089 77.6014 13.2466 77.8687 13.0361C78.4035 12.6176 79.0685 12.393 79.7517 12.4001C79.9528 12.3992 80.1547 12.4146 80.3326 12.4418C80.8527 12.5362 81.3175 12.6705 81.7813 13.2766C81.8671 13.3936 81.9463 13.527 82.0202 13.6849C82.0939 13.8437 82.1622 14.026 82.2229 14.2493C82.283 14.4715 82.3365 14.7339 82.3742 15.066C82.412 15.398 82.4332 15.8008 82.4332 16.2029V27.3398H89.138V15.2328C89.138 14.3109 89.0494 13.3873 88.8843 12.6006C88.746 11.9078 88.5147 11.2362 88.1964 10.6035C87.9345 10.0799 87.5954 9.59715 87.1904 9.17077C86.8027 8.76539 86.3549 8.41974 85.8626 8.14545C85.3139 7.84136 84.7234 7.61673 84.1097 7.47855C83.3792 7.31471 82.632 7.23432 81.8827 7.23899C81.4276 7.23465 80.9727 7.26256 80.5217 7.32248C80.0975 7.37964 79.7186 7.46494 79.3552 7.57291C78.9918 7.68089 78.6442 7.81245 78.2062 8.08284C77.7683 8.35324 77.239 8.76337 76.7558 9.21705L76.5188 9.3722V0.0200195H69.8122ZM97.8915 14.1268C97.9201 13.8573 97.9691 13.5905 98.0234 13.3701C98.0796 13.1496 98.1424 12.9744 98.2107 12.8247C98.3675 12.45 98.6864 12.0798 98.976 11.8983C99.2214 11.7382 99.4931 11.6213 99.7791 11.5526C99.947 11.509 100.136 11.4727 100.357 11.4474C100.901 11.3869 101.45 11.4001 101.99 11.4864C102.267 11.5345 102.508 11.6052 102.715 11.6914C102.923 11.7767 103.095 11.8774 103.239 11.9845C103.812 12.4427 103.916 12.8928 103.808 13.4045C103.753 13.5869 103.649 13.7638 103.434 13.948C103.324 14.0388 103.186 14.1268 102.978 14.2374C102.769 14.3473 102.492 14.4806 101.616 14.6712C100.741 14.8627 99.2674 15.1103 98.1222 15.3408C96.9769 15.5695 96.1552 15.78 95.5292 15.976C94.9002 16.1711 94.465 16.3526 94.0989 16.5259C93.7319 16.6992 93.4359 16.8643 93.1768 17.0295C92.9177 17.1945 92.6946 17.3589 92.4926 17.5294C90.8604 18.9857 90.6825 20.316 90.6355 21.7713C90.6318 22.3947 90.7342 23.0171 90.9435 23.6169C91.1528 24.2166 91.4653 24.7929 91.8886 25.3228C92.3337 25.8769 92.8679 26.3557 93.47 26.74C94.7131 27.5631 96.4383 28.0022 98.0298 28.0185C98.8202 28.0321 99.555 27.9532 100.284 27.8026C101.016 27.652 101.741 27.4278 102.442 27.1265C103.2 26.7999 103.935 26.3907 104.596 25.8853L105.07 27.3598H111.024C110.893 27.0754 110.778 26.7841 110.68 26.4869C110.601 26.2429 110.571 26.0732 110.547 25.8563C110.523 25.6395 110.513 25.3736 110.513 25.1096V17.1538C110.513 15.6838 110.477 14.2085 110.384 13.2448C110.29 12.2812 110.159 11.8284 110.017 11.4328C109.751 10.6666 109.323 9.96457 108.761 9.37313C108.438 9.02786 108.077 8.72007 107.684 8.45578C107.207 8.1409 106.695 7.88147 106.158 7.6827C105.557 7.45494 104.851 7.25896 103.995 7.12195C103.139 6.98494 102.132 6.9069 101.168 6.90872C100.257 6.90668 99.3486 6.98471 98.4522 7.1419C97.6242 7.29253 96.8855 7.51393 96.2373 7.77979C95.6402 8.02131 95.0733 8.32973 94.548 8.69894C94.0911 9.01981 93.6755 9.39428 93.3105 9.8141C92.9665 10.2133 92.6854 10.6389 92.4603 11.0908C91.9919 12.0244 91.7761 13.0761 91.7798 14.1268H97.8915ZM103.836 21.1553C103.717 21.4728 103.541 21.7777 103.303 22.0535C103.067 22.3311 102.772 22.5798 102.428 22.7875C102.063 23.0035 101.668 23.1659 101.255 23.2694C100.586 23.4345 99.8355 23.5053 99.0719 23.3601C98.8344 23.3134 98.6031 23.2403 98.3821 23.1423C98.1908 23.057 98.0111 22.9481 97.8473 22.8185C97.3466 22.4064 97.1991 21.9583 97.1917 21.5264C97.189 21.3683 97.2004 21.2104 97.2258 21.0545C97.2867 20.7124 97.3973 20.4838 97.6565 20.2324C97.7358 20.1571 97.8308 20.0801 97.9588 19.9993C98.0852 19.9167 98.2438 19.8304 98.4725 19.7215C98.7031 19.6127 99.0037 19.482 99.9388 19.1999C100.872 18.9168 102.44 18.4831 104.014 18.0811V20.1771C104.014 20.5108 103.954 20.8419 103.836 21.1553ZM112.683 27.3407H119.388V15.8535C119.388 15.4361 119.426 15.017 119.498 14.6594C119.557 14.3462 119.658 14.0419 119.796 13.7539C119.919 13.5007 120.063 13.2893 120.225 13.1105C120.388 12.9318 120.567 12.7848 120.773 12.6632C121.177 12.4137 121.744 12.2894 122.282 12.2839C122.551 12.2812 122.796 12.3066 123.016 12.3529C123.235 12.3992 123.428 12.4654 123.603 12.5507C123.777 12.6351 123.936 12.7367 124.081 12.8592C124.225 12.9817 124.355 13.1242 124.473 13.2938C124.594 13.4644 124.7 13.6604 124.794 13.8963C124.888 14.1323 124.968 14.4071 125.021 14.741C125.077 15.0741 125.108 15.4643 125.108 15.8544V27.3416H131.812V14.7665C131.812 13.9553 131.721 13.1432 131.551 12.4237C131.399 11.7624 131.156 11.1247 130.829 10.5282C130.54 10.0041 130.177 9.5234 129.75 9.10091C129.336 8.69344 128.865 8.34715 128.35 8.07286C127.799 7.77914 127.211 7.56087 126.6 7.4241C124.977 7.06479 123.121 7.09472 121.415 7.77798C120.661 8.07792 119.964 8.49891 119.351 9.02378C119.181 9.16646 119.022 9.32243 118.877 9.49017V7.86054H112.685V27.3407H112.683ZM132.752 20.53C132.726 20.8032 132.711 20.9747 132.713 21.1897C132.718 22.3457 133 23.5134 133.861 24.6621C134.124 25.0106 134.438 25.3455 134.81 25.664C135.183 25.9841 135.617 26.2872 136.122 26.5667C136.626 26.8463 137.202 27.1012 137.854 27.3181C138.565 27.551 139.295 27.7238 140.035 27.8344C140.833 27.9567 141.703 28.0239 142.627 28.0185C143.559 28.015 144.49 27.9398 145.409 27.7935C146.201 27.6672 146.978 27.4623 147.728 27.182C148.341 26.9531 148.926 26.6573 149.472 26.3C149.97 25.9715 150.39 25.6122 150.743 25.2284C151.096 24.8445 151.383 24.4363 151.614 24.0008C152.4 22.4818 152.541 20.785 151.996 19.0039C151.719 18.1751 151.217 17.437 150.542 16.8697C150.352 16.7065 150.141 16.5486 149.901 16.3934C149.659 16.2382 149.384 16.0831 149.045 15.9215C148.623 15.7205 148.185 15.5509 147.737 15.4143C147.167 15.2375 146.43 15.0496 145.385 14.8455C144.338 14.6412 142.983 14.4227 142.175 14.252C141.369 14.0805 141.109 13.958 140.913 13.8546C140.76 13.7777 140.616 13.6853 140.482 13.5787C140.041 13.1795 140.03 12.8238 140.149 12.4173C140.225 12.2059 140.371 11.989 140.663 11.7822C140.797 11.6878 140.958 11.6016 141.147 11.5281C141.36 11.4478 141.581 11.3892 141.806 11.353C142.055 11.3112 142.334 11.2867 142.634 11.2922C142.935 11.2967 143.258 11.3303 143.538 11.3938C143.815 11.4582 144.047 11.5544 144.248 11.6733C144.652 11.9123 144.964 12.2764 145.136 12.7086C145.264 13.0007 145.305 13.3537 145.372 13.6985H151.524V13.116C151.525 12.6053 151.471 12.0959 151.359 11.5971C151.258 11.1425 151.099 10.7025 150.884 10.2877C150.676 9.88763 150.417 9.51531 150.113 9.17984C149.802 8.83868 149.44 8.52472 149.006 8.23709C148.572 7.94947 148.068 7.68905 147.469 7.46403C146.871 7.2381 146.176 7.04845 145.356 6.91688C144.537 6.78532 143.593 6.71091 142.653 6.71272C141.74 6.71236 140.828 6.78703 139.928 6.93594C139.154 7.06532 138.395 7.27049 137.663 7.54841C137.055 7.77946 136.475 8.07649 135.934 8.43399C135.472 8.73859 135.05 9.09721 134.677 9.50197C134.34 9.86667 134.052 10.2722 133.819 10.7088C133.077 12.1596 132.908 13.7448 133.464 15.4143C133.719 16.0875 134.127 16.7608 134.977 17.4178C135.185 17.5766 135.415 17.7309 135.692 17.8851C135.968 18.0393 136.288 18.1936 136.706 18.3642C137.122 18.5347 137.634 18.7235 138.651 18.9476C139.668 19.1717 141.192 19.4277 142.205 19.6308C143.218 19.8341 143.719 19.9821 144.066 20.1072C144.413 20.2342 144.606 20.3377 144.759 20.4348C145.497 20.9238 145.531 21.3748 145.466 21.8947C145.413 22.1452 145.309 22.3838 145.063 22.6261C144.988 22.6996 144.9 22.7713 144.796 22.8393C144.68 22.9149 144.559 22.9809 144.433 23.0362C144.276 23.1029 144.116 23.1585 143.951 23.2022C143.5 23.3129 143.037 23.3666 142.573 23.3619C142.185 23.3628 141.8 23.3247 141.465 23.2567C141.13 23.1886 140.849 23.0898 140.604 22.9718C140.359 22.8537 140.15 22.714 139.972 22.5562C139.794 22.4 139.639 22.2201 139.512 22.0217C139.237 21.5944 139.095 21.0617 139.062 20.5292L132.752 20.53ZM160.603 14.1268C160.631 13.8573 160.678 13.5905 160.735 13.3701C160.79 13.1496 160.854 12.9744 160.921 12.8247C161.079 12.45 161.396 12.0798 161.685 11.8983C161.931 11.7389 162.203 11.6219 162.489 11.5526C162.658 11.509 162.845 11.4727 163.067 11.4474C163.61 11.3869 164.16 11.4 164.699 11.4864C164.976 11.5345 165.217 11.6052 165.427 11.6914C165.633 11.7767 165.807 11.8774 165.951 11.9845C166.521 12.4427 166.625 12.8928 166.517 13.4045C166.464 13.5869 166.361 13.7638 166.144 13.948C166.005 14.0594 165.853 14.1565 165.693 14.2384C165.486 14.3482 165.211 14.4816 164.339 14.674C163.469 14.8653 162.003 15.1168 160.857 15.3481C159.71 15.5795 158.882 15.7909 158.252 15.9877C157.758 16.1375 157.278 16.3226 156.811 16.5413C156.492 16.6905 156.183 16.8592 155.888 17.0467C155.649 17.1979 155.419 17.3649 155.203 17.5466C153.573 18.9984 153.395 20.3223 153.348 21.7704C153.344 22.3983 153.447 23.0223 153.655 23.616C153.863 24.2158 154.176 24.7919 154.599 25.3218C155.023 25.8517 155.553 26.3344 156.182 26.7392C157.434 27.5675 159.154 28.0049 160.749 28.0167C161.549 28.0294 162.299 27.946 163.047 27.7854C163.797 27.6247 164.548 27.3869 165.239 27.0866C165.976 26.7711 166.671 26.3669 167.307 25.8835L167.78 27.358H173.736C173.607 27.0787 173.49 26.7931 173.389 26.5023C173.321 26.3047 173.277 26.0996 173.257 25.8916C173.232 25.6311 173.221 25.3694 173.223 25.1077V17.152C173.223 15.652 173.191 14.1467 173.097 13.1741C173.005 12.2023 172.871 11.764 172.727 11.3802C172.458 10.6274 172.027 9.94022 171.465 9.36495C171.134 9.01845 170.763 8.7101 170.36 8.44579C169.87 8.1299 169.347 7.86934 168.799 7.66909C168.186 7.44225 167.473 7.24898 166.629 7.11469C165.787 6.9804 164.811 6.90509 163.862 6.9069C162.954 6.90599 162.05 6.98401 161.156 7.1401C160.327 7.28981 159.59 7.50939 158.944 7.77344C158.347 8.01389 157.783 8.32045 157.258 8.68715C156.802 9.0067 156.388 9.37966 156.026 9.79776C155.68 10.1961 155.398 10.6216 155.173 11.0735C154.704 12.0099 154.488 13.0688 154.492 14.1259L160.603 14.1268ZM166.53 21.1553C166.41 21.4728 166.232 21.7777 165.996 22.0535C165.76 22.3311 165.466 22.5798 165.121 22.7875C164.756 23.0035 164.36 23.1659 163.947 23.2694C163.279 23.4345 162.528 23.5053 161.765 23.3601C161.527 23.3135 161.295 23.2406 161.075 23.1423C160.883 23.057 160.704 22.9481 160.54 22.8185C160.055 22.4165 159.89 21.9745 159.884 21.5354C159.883 21.3779 159.895 21.2204 159.918 21.0645C159.981 20.7224 160.095 20.4847 160.364 20.2279C160.446 20.1499 160.544 20.071 160.677 19.9857C160.809 19.9021 160.971 19.8132 161.21 19.7007C161.448 19.5891 161.759 19.4548 162.687 19.1754C163.615 18.8959 165.158 18.473 166.706 18.0811V20.1771C166.706 20.5065 166.648 20.8376 166.53 21.1553Z" fill="#9CA3AF"/>
</g>
<defs>
<clipPath id="clip0_628_38">
<rect width="175" height="28" fill="white" transform="translate(0 0.0200195)"/>
</clipPath>
</defs>
</svg>
