<svg width="175" height="30" viewBox="0 0 175 30" fill="none" xmlns="http://www.w3.org/2000/svg">
<g clip-path="url(#clip0_628_24)">
<path fill-rule="evenodd" clip-rule="evenodd" d="M0 29.52V0.52002H31.2246V29.52H0ZM49.9076 28.4773L38.3407 1.28777H46.7454L54.1171 18.7613L61.4878 1.28777H69.7835L58.264 28.4773H49.9076ZM65.781 28.4875L77.2875 1.25191H86.0588L97.6873 28.4875H89.4513L87.9556 25.022H75.3785L73.9676 28.4875H65.781ZM97.7237 28.4773V1.23996H111.626C116.674 1.23996 120.785 4.99414 120.785 10.0429C120.785 13.4247 118.887 16.6282 115.713 17.9696L124.786 28.4773H114.972L105.253 17.1908V28.4773H97.7237ZM130.176 28.4773V8.81914H122.684V1.27582H145.659V8.81914H137.96V28.4773H130.176ZM142.557 28.4875L154.065 1.25191H162.834L174.463 28.4875H166.228L164.732 25.022H152.143L150.744 28.4875H142.557Z" fill="#9CA3AF"/>
<path fill-rule="evenodd" clip-rule="evenodd" d="M105.253 14.024H109.486C111.686 14.0121 113.17 13.077 113.17 10.7379C113.17 8.38679 111.686 7.45169 109.486 7.45169L105.253 7.43974V14.024ZM0.28125 0.807617L15.4124 24.5418L30.9211 0.819571L0.28125 0.807617ZM78.0303 18.6665H85.2676L81.6923 10.1384L78.0303 18.6665ZM154.796 18.6665H162.045L158.47 10.1384L154.796 18.6665Z" fill="white"/>
</g>
<defs>
<clipPath id="clip0_628_24">
<rect width="175" height="29" fill="white" transform="translate(0 0.52002)"/>
</clipPath>
</defs>
</svg>
