<svg width="175" height="49" viewBox="0 0 175 49" fill="none" xmlns="http://www.w3.org/2000/svg">
<g clip-path="url(#clip0_628_33)">
<path fill-rule="evenodd" clip-rule="evenodd" d="M21.1658 46.2082L19.6905 41.4734L25.0037 19.5817H25.2984L31.2025 46.2082H40.9443L39.7637 41.7699L45.6666 16.0322C46.8472 11.595 47.7329 8.34099 51.5705 7.74885V4.79144H39.1739V7.74885C40.6494 8.04438 43.6014 8.34099 43.6014 11.004C43.6014 12.7782 42.7157 16.3288 42.1259 18.6952L38.2882 36.1495H37.9922L30.9076 4.49484L21.7568 6.8612L23.5282 14.849L18.215 35.853L12.6069 8.04329L15.5578 7.74776V4.79035H0.50293V7.74776L3.15898 8.04329L11.4242 46.2071L21.1658 46.2082ZM58.9511 30.8237C58.6564 29.6394 58.6564 28.7538 58.6564 27.865C58.6564 25.2032 58.9511 19.8773 62.494 19.8773C65.446 19.8773 66.3317 22.2437 66.3317 26.0909C66.3317 27.865 65.446 28.7528 63.3797 29.3427L58.9511 30.8237ZM71.9398 36.7406C70.4643 39.107 68.9878 40.8834 66.0358 40.8834C62.198 40.8834 60.4266 37.3326 59.5409 34.6709L73.7101 29.6405C73.1193 23.7245 70.757 16.9199 63.3775 16.9199C55.1123 16.9199 50.9798 24.6121 50.9798 32.0089C50.9798 39.7002 54.8165 47.097 62.4918 47.097C68.396 47.097 71.6428 43.8429 74.0039 38.8114L71.9398 36.7406ZM77.8437 4.49375V7.45225C79.3193 7.45225 80.4999 7.45225 80.4999 8.93094V43.2498L77.8437 43.5453V46.2071H91.1273V43.5453L88.1754 43.2498V0.943115L77.8437 4.49375ZM94.3742 4.49375V7.45225C95.8507 7.45225 97.0302 7.45225 97.0302 8.93094V43.2498L94.3742 43.5453V46.2071H107.659V43.5453L105.003 43.2498V0.943115L94.3742 4.49375ZM118.58 30.8237V27.865C118.58 25.2032 118.875 19.8773 122.418 19.8773C125.37 19.8773 126.255 22.2437 126.255 26.0909C126.255 27.865 125.074 28.7528 123.009 29.3427L118.58 30.8237ZM131.865 36.7406C130.092 39.107 128.618 40.8834 125.666 40.8834C122.123 40.8834 120.353 37.3326 119.467 34.6709L133.635 29.6405C133.044 23.7245 130.388 16.9199 123.009 16.9199C115.037 16.9199 110.61 24.6121 110.61 32.0089C110.61 39.7002 114.447 47.097 122.122 47.097C128.026 47.097 131.273 43.8429 133.93 38.8114L131.865 36.7406ZM136.291 23.4269H137.768C140.72 23.4269 140.72 28.7528 140.72 31.1191V43.2487L138.063 43.5442V46.206H151.346V43.5442L148.69 43.2487V37.3315C148.69 29.6383 150.462 26.0898 151.642 25.2021C152.527 25.2021 153.414 25.4977 154.889 25.4977C158.432 25.4977 159.613 23.4258 159.613 21.3549C159.613 18.3975 158.137 16.9177 155.48 16.9177C150.755 16.9177 148.69 23.1302 147.803 26.3842C147.509 23.1313 146.92 19.8773 145.738 16.9177L136.291 20.7638V23.4269ZM168.764 18.3986C172.305 18.3986 174.961 15.4401 174.961 11.8894C174.961 8.63543 172.305 5.67693 168.764 5.67693C165.221 5.67693 162.269 8.63543 162.269 11.8894C162.269 15.4401 165.221 18.3986 168.764 18.3986ZM168.764 16.9188C166.106 16.9188 164.04 14.8479 164.04 11.8894C164.04 9.22756 166.105 7.15563 168.764 7.15563C171.42 7.15563 173.191 9.22647 173.191 11.8894C173.191 14.8479 171.42 16.9188 168.764 16.9188ZM170.239 12.4816C171.42 12.4816 172.009 11.8905 172.009 10.7073C172.009 9.22865 171.125 8.63652 169.353 8.63652H166.106V15.4412H167.582V12.4816H168.764L170.239 15.4401H171.715L170.239 12.4816ZM167.582 11.5939V9.52308H169.057C169.648 9.52308 170.829 9.52308 170.829 10.4107C170.829 11.2984 170.239 11.5939 169.353 11.5939H167.582Z" fill="#9CA3AF"/>
</g>
<defs>
<clipPath id="clip0_628_33">
<rect width="175" height="48" fill="white" transform="translate(0 0.0200195)"/>
</clipPath>
</defs>
</svg>
